<svg width="48" height="49" viewBox="0 0 48 49" fill="none" xmlns="http://www.w3.org/2000/svg">
<path d="M24.0341 48.054C30.3802 48.054 36.3296 45.5837 40.8058 41.0453C45.2821 36.5069 47.7185 30.4748 47.7185 24.0406C47.7185 17.6064 45.2821 11.5744 40.8058 7.03596C36.3296 2.49755 30.3802 0.0272827 24.0341 0.0272827C17.6881 0.0272827 11.7387 2.49755 7.26242 7.03596C2.78619 11.5744 0.349762 17.6064 0.349762 24.0406C0.349762 30.4748 2.78619 36.5069 7.26242 41.0453C11.7387 45.5837 17.6881 48.054 24.0341 48.054ZM25.394 43.9752C24.9407 44.0326 24.4874 44.0326 24.0341 44.0326C23.4109 44.0326 22.7876 43.9751 22.1643 43.9177C20.1245 40.7006 18.5947 37.2537 17.6881 33.6345H27.7171C28.0571 34.4962 28.6804 35.3005 29.417 35.8175C28.4537 38.6899 27.0938 41.39 25.394 43.9752ZM30.7768 42.8262C31.8534 40.8155 32.7033 38.8048 33.3832 36.6792C35.0264 36.3345 36.3296 35.1856 36.9529 33.6345H41.3158C39.0494 37.8282 35.253 41.1027 30.7768 42.8262ZM43.6956 24.0406C43.6956 25.9364 43.4123 27.7748 42.959 29.5557H36.8396C36.4996 28.8088 35.933 28.1195 35.2531 27.6024C35.3664 26.3386 35.423 25.0747 35.423 23.8108C35.423 22.0299 35.3097 20.249 35.0831 18.5256H42.9023C43.4689 20.249 43.6956 22.1448 43.6956 24.0406ZM41.3158 14.4468H34.4031C33.6665 11.2871 32.59 8.29983 31.1168 5.42742C35.423 7.09341 39.0494 10.368 41.3158 14.4468ZM31.4568 23.8108C31.4568 24.7875 31.4001 25.7641 31.3434 26.7407C29.7569 27.0854 28.4537 28.1194 27.8304 29.5557H16.8948C16.6682 27.8322 16.4982 26.0513 16.4982 24.3279C16.4982 23.2364 16.5549 22.1448 16.6682 21.0533C18.1414 20.7661 19.3313 19.7895 20.0679 18.5256H31.1168C31.3434 20.249 31.4568 22.0299 31.4568 23.8108ZM22.5609 4.16355C23.0709 4.1061 23.5808 4.10611 24.0341 4.10611C24.6007 4.10611 25.1674 4.1061 25.734 4.16355C27.7738 7.38065 29.3036 10.8275 30.2102 14.4468H20.3512C20.0112 13.4702 19.3879 12.6084 18.5947 11.9765C19.6146 9.21899 20.9178 6.63382 22.5609 4.16355ZM17.1781 5.31251C16.2149 7.15086 15.365 9.10409 14.685 11.0573C12.9285 11.402 11.512 12.7233 10.9454 14.3893H6.80914C9.01893 10.3105 12.7019 7.03596 17.1781 5.31251ZM4.37271 24.0406C4.37271 22.1448 4.65601 20.249 5.16596 18.5256H11.342C11.682 19.1575 12.192 19.732 12.7586 20.1916C12.6452 21.5704 12.5319 22.9491 12.5319 24.3279C12.5319 26.1088 12.6452 27.8322 12.8719 29.5557H5.16596C4.59935 27.7748 4.37271 25.9364 4.37271 24.0406ZM13.5518 33.577C14.2884 36.6792 15.365 39.724 16.8382 42.5964C12.5319 40.8729 8.96226 37.6558 6.75248 33.577H13.5518Z" fill="#FFD7D7"/>
</svg>
