<svg width="298" height="49" viewBox="0 0 298 49" fill="none" xmlns="http://www.w3.org/2000/svg">
<path d="M74.77 34.3586C70.7007 34.3586 67.294 32.9866 64.55 30.2426C61.806 27.4986 60.434 24.0733 60.434 19.9666C60.434 15.9346 61.806 12.5373 64.55 9.77463C67.294 7.03063 70.7007 5.65863 74.77 5.65863C78.858 5.65863 82.3673 6.9373 85.298 9.49463L81.49 13.6666C79.53 12.136 77.29 11.3706 74.77 11.3706C72.194 11.3893 70.1127 12.2013 68.526 13.8066C66.958 15.3933 66.174 17.428 66.174 19.9106C66.174 22.58 66.9673 24.6986 68.554 26.2666C70.1407 27.8346 72.222 28.6186 74.798 28.6186C76.87 28.6186 78.4567 28.2173 79.558 27.4146V22.4866L75.75 22.5146V17.1386H85.298V30.5506C82.386 33.0893 78.8767 34.3586 74.77 34.3586ZM95.574 15.2066V17.3346C96.9553 15.9346 98.626 15.2346 100.586 15.2346C101.202 15.2346 101.79 15.2813 102.35 15.3746L101.51 20.6666C100.894 20.1066 100.007 19.808 98.85 19.7706C97.5433 19.864 96.4513 20.8066 95.574 22.5986V34.3586H90.226V15.7946L95.574 15.2066ZM114.53 34.5546C111.749 34.5546 109.425 33.6213 107.558 31.7546C105.71 29.888 104.786 27.5733 104.786 24.8106C104.786 22.0293 105.71 19.7053 107.558 17.8386C109.425 15.972 111.749 15.0386 114.53 15.0386C117.311 15.0386 119.635 15.972 121.502 17.8386C123.369 19.7053 124.302 22.0293 124.302 24.8106C124.302 27.592 123.369 29.9066 121.502 31.7546C119.635 33.6213 117.311 34.5546 114.53 34.5546ZM114.53 29.9346C115.967 29.9346 117.143 29.44 118.058 28.4506C118.973 27.48 119.43 26.2666 119.43 24.8106C119.43 23.3546 118.973 22.1413 118.058 21.1706C117.143 20.1813 115.958 19.6866 114.502 19.6866C113.065 19.6866 111.889 20.1813 110.974 21.1706C110.078 22.1413 109.63 23.3546 109.63 24.8106C109.63 26.2666 110.078 27.48 110.974 28.4506C111.889 29.44 113.074 29.9346 114.53 29.9346ZM139.478 27.5826V15.2066H144.826V34.3586H139.478V32.6226C138.19 33.78 136.659 34.3586 134.886 34.3586C132.459 34.3586 130.611 33.6213 129.342 32.1466C128.054 30.672 127.41 28.9826 127.41 27.0786V15.2066H132.786V25.7346C132.786 27.004 133.103 27.9933 133.738 28.7026C134.373 29.412 135.334 29.7853 136.622 29.8226C137.742 29.748 138.694 29.0013 139.478 27.5826ZM154.738 42.4226L149.39 42.3946V15.7946L154.738 15.2066V16.7466C156.175 15.72 157.585 15.2066 158.966 15.2066C161.897 15.2066 164.221 16.168 165.938 18.0906C167.674 19.9946 168.542 22.2253 168.542 24.7826C168.542 27.34 167.674 29.5706 165.938 31.4746C164.221 33.3973 161.897 34.3586 158.966 34.3586C157.043 34.228 155.634 33.7053 154.738 32.7906V42.4226ZM154.738 23.0466V26.1546C154.999 28.3013 156.343 29.5613 158.77 29.9346C161.831 29.692 163.558 28.1053 163.95 25.1746C163.819 21.5906 162.093 19.7333 158.77 19.6026C156.343 19.9946 154.999 21.1426 154.738 23.0466ZM181.002 34.5546C178.221 34.5546 175.906 33.6213 174.058 31.7546C172.191 29.888 171.258 27.5733 171.258 24.8106C171.258 22.0293 172.191 19.7053 174.058 17.8386C175.906 15.972 178.221 15.0386 181.002 15.0386C183.783 15.0386 186.107 15.972 187.974 17.8386C189.841 19.7053 190.774 22.0293 190.774 24.8106C190.774 27.592 189.841 29.9066 187.974 31.7546C186.107 33.6213 183.783 34.5546 181.002 34.5546ZM181.002 29.9346C182.458 29.9346 183.634 29.44 184.53 28.4506C185.445 27.48 185.902 26.2666 185.902 24.8106C185.902 23.3546 185.445 22.1413 184.53 21.1706C183.634 20.1813 182.449 19.6866 180.974 19.6866C179.537 19.6866 178.361 20.1813 177.446 21.1706C176.55 22.1413 176.102 23.3546 176.102 24.8106C176.102 26.2666 176.55 27.48 177.446 28.4506C178.361 29.44 179.546 29.9346 181.002 29.9346ZM199.706 22.1226V34.3586H194.33V15.7946L199.706 15.2066V16.9146C200.901 15.7946 202.431 15.2346 204.298 15.2346C206.706 15.2346 208.554 15.9626 209.842 17.4186C211.242 15.9626 213.342 15.2346 216.142 15.2346C218.569 15.2346 220.426 15.9626 221.714 17.4186C222.983 18.8933 223.618 20.592 223.618 22.5146V34.3586H218.27V23.8306C218.27 22.5613 217.981 21.572 217.402 20.8626C216.823 20.172 215.89 19.808 214.602 19.7706C213.538 19.8453 212.623 20.5453 211.858 21.8706C211.783 22.2626 211.746 22.664 211.746 23.0746V34.3586H206.398V23.8306C206.398 22.5613 206.109 21.572 205.53 20.8626C204.951 20.172 204.018 19.808 202.73 19.7706C201.554 19.8453 200.546 20.6293 199.706 22.1226ZM230.814 20.7786L228.714 17.5306C231.141 16 233.95 15.2346 237.142 15.2346C239.438 15.2346 241.249 15.8693 242.574 17.1386C243.918 18.4266 244.59 20.34 244.59 22.8786V34.3586H239.242V32.8466C237.674 33.8546 236.265 34.3586 235.014 34.3586C232.475 34.3586 230.562 33.8173 229.274 32.7346C228.005 31.652 227.37 30.1586 227.37 28.2546C227.37 26.4626 227.977 24.8666 229.19 23.4666C230.385 22.0666 232.326 21.3666 235.014 21.3666C236.265 21.3666 237.674 21.7493 239.242 22.5146V21.9266C239.205 20.5266 238.178 19.7613 236.162 19.6306C233.866 19.6306 232.083 20.0133 230.814 20.7786ZM239.242 28.6186V26.4626C238.738 25.4733 237.525 24.9786 235.602 24.9786C233.306 25.24 232.093 26.136 231.962 27.6666C232.093 29.1786 233.306 30 235.602 30.1306C237.525 30.1306 238.738 29.6266 239.242 28.6186ZM254.754 22.2066V34.3586H249.378V15.7946L254.754 15.2066V16.9426C256.042 15.804 257.573 15.2346 259.346 15.2346C261.773 15.2346 263.621 15.9626 264.89 17.4186C266.159 18.8933 266.794 20.592 266.794 22.5146V34.3586H261.446V23.8306C261.446 22.5613 261.129 21.572 260.494 20.8626C259.841 20.172 258.87 19.808 257.582 19.7706C256.481 19.8453 255.538 20.6573 254.754 22.2066ZM276.65 34.3586H271.302V15.2066H276.65V34.3586ZM271.106 10.6426C271.106 11.408 271.358 12.0426 271.862 12.5466C272.385 13.0506 273.094 13.3026 273.99 13.3026C274.867 13.3026 275.567 13.0506 276.09 12.5466C276.594 12.0426 276.846 11.408 276.846 10.6426C276.846 9.8773 276.594 9.2333 276.09 8.71063C275.567 8.18796 274.849 7.92663 273.934 7.92663C273.075 7.92663 272.385 8.18796 271.862 8.71063C271.358 9.2333 271.106 9.8773 271.106 10.6426ZM283.79 20.7786L281.69 17.5306C284.117 16 286.926 15.2346 290.118 15.2346C292.414 15.2346 294.234 15.8693 295.578 17.1386C296.903 18.4266 297.566 20.34 297.566 22.8786V34.3586H292.218V32.8466C290.669 33.8546 289.269 34.3586 288.018 34.3586C285.461 34.3586 283.547 33.8173 282.278 32.7346C280.99 31.652 280.346 30.1586 280.346 28.2546C280.346 26.4626 280.953 24.8666 282.166 23.4666C283.361 22.0666 285.311 21.3666 288.018 21.3666C289.25 21.3666 290.65 21.7493 292.218 22.5146V21.9266C292.199 20.5266 291.182 19.7613 289.166 19.6306C286.87 19.6306 285.078 20.0133 283.79 20.7786ZM292.218 28.6186V26.4626C291.714 25.4733 290.501 24.9786 288.578 24.9786C286.282 25.24 285.069 26.136 284.938 27.6666C285.069 29.1786 286.282 30 288.578 30.1306C290.501 30.1306 291.714 29.6266 292.218 28.6186Z" fill="#FD2D01"/>
<path d="M24.0341 48.054C30.3802 48.054 36.3296 45.5837 40.8058 41.0453C45.2821 36.5069 47.7185 30.4748 47.7185 24.0406C47.7185 17.6064 45.2821 11.5744 40.8058 7.03596C36.3296 2.49755 30.3802 0.0272827 24.0341 0.0272827C17.6881 0.0272827 11.7387 2.49755 7.26242 7.03596C2.78619 11.5744 0.349762 17.6064 0.349762 24.0406C0.349762 30.4748 2.78619 36.5069 7.26242 41.0453C11.7387 45.5837 17.6881 48.054 24.0341 48.054ZM25.394 43.9752C24.9407 44.0326 24.4874 44.0326 24.0341 44.0326C23.4109 44.0326 22.7876 43.9751 22.1643 43.9177C20.1245 40.7006 18.5947 37.2537 17.6881 33.6345H27.7171C28.0571 34.4962 28.6804 35.3005 29.417 35.8175C28.4537 38.6899 27.0938 41.39 25.394 43.9752V43.9752ZM30.7768 42.8262C31.8534 40.8155 32.7033 38.8048 33.3832 36.6792C35.0264 36.3345 36.3296 35.1856 36.9529 33.6345H41.3158C39.0494 37.8282 35.253 41.1027 30.7768 42.8262ZM43.6956 24.0406C43.6956 25.9364 43.4123 27.7748 42.959 29.5557H36.8396C36.4996 28.8088 35.933 28.1195 35.2531 27.6024C35.3664 26.3386 35.423 25.0747 35.423 23.8108C35.423 22.0299 35.3097 20.249 35.0831 18.5256H42.9023C43.4689 20.249 43.6956 22.1448 43.6956 24.0406V24.0406ZM41.3158 14.4468H34.4031C33.6665 11.2871 32.59 8.29983 31.1168 5.42742C35.423 7.09341 39.0494 10.368 41.3158 14.4468ZM31.4568 23.8108C31.4568 24.7875 31.4001 25.7641 31.3434 26.7407C29.7569 27.0854 28.4537 28.1195 27.8304 29.5557H16.8948C16.6682 27.8322 16.4982 26.0513 16.4982 24.3279C16.4982 23.2364 16.5549 22.1448 16.6682 21.0533C18.1414 20.7661 19.3313 19.7895 20.0679 18.5256H31.1168C31.3434 20.249 31.4568 22.0299 31.4568 23.8108V23.8108ZM22.5609 4.16355C23.0709 4.1061 23.5808 4.10611 24.0341 4.10611C24.6007 4.10611 25.1674 4.1061 25.734 4.16355C27.7738 7.38065 29.3036 10.8275 30.2102 14.4468H20.3512C20.0112 13.4702 19.3879 12.6084 18.5947 11.9765C19.6146 9.21899 20.9178 6.63382 22.5609 4.16355ZM17.1781 5.31251C16.2149 7.15086 15.365 9.10409 14.685 11.0573C12.9285 11.402 11.512 12.7233 10.9454 14.3893H6.80914C9.01893 10.3105 12.7019 7.03596 17.1781 5.31251ZM4.37271 24.0406C4.37271 22.1448 4.65601 20.249 5.16596 18.5256H11.342C11.682 19.1575 12.192 19.732 12.7586 20.1916C12.6452 21.5704 12.5319 22.9491 12.5319 24.3279C12.5319 26.1088 12.6452 27.8322 12.8719 29.5557H5.16596C4.59935 27.7748 4.37271 25.9364 4.37271 24.0406ZM13.5518 33.577C14.2884 36.6792 15.365 39.724 16.8382 42.5964C12.5319 40.8729 8.96226 37.6558 6.75248 33.577H13.5518Z" fill="#FFD7D7"/>
</svg>
